<?xml version="1.0" encoding="UTF-8"?>
<svg id="Layer_1" data-name="Layer 1" xmlns="http://www.w3.org/2000/svg" version="1.1" viewBox="0 0 44.3 35.3">
  <defs>
    <style>
      .cls-1 {
        fill: #c4161f;
      }

      .cls-1, .cls-2, .cls-3, .cls-4, .cls-5 {
        stroke-width: 0px;
      }

      .cls-2 {
        fill: #376194;
      }

      .cls-3 {
        fill: #376195;
      }

      .cls-4 {
        fill: #c3161f;
      }

      .cls-5 {
        fill: #fff;
      }
    </style>
  </defs>
  <path class="cls-4" d="M12.2,33.9c3.1,0,5.7-.9,7.5-2.7,1.9-1.8,2.8-4.2,2.8-7.1s-.9-5.5-2.8-7.3-4.3-2.7-7.4-2.7-5.7.9-7.6,2.8c-1.9,1.9-2.9,4.4-2.9,7.5s.9,5.2,2.8,6.9,4.4,2.6,7.5,2.6h0Z"/>
  <path class="cls-2" d="M0,24.6c0-3.4,1.2-6.3,3.5-8.5,2.3-2.2,5.2-3.4,8.8-3.4s5.1.8,7.9,2.4c-.2-.8-.3-1.4-.3-1.9,0-1.6.6-2.9,1.8-4s2.7-1.6,4.5-1.6,2.8.4,3.8,1.3,1.5,2,1.5,3.4-.3,1.7-.8,2.4c-.6.7-1.2,1-2.1,1-1.4,0-2.1-.7-2.1-2.1s.6-2,1.7-2,.2,0,.6.1h.3c.3,0,.5-.2.5-.6,0-.6-.3-1.1-1-1.5s-1.4-.6-2.3-.6c-1.4,0-2.6.4-3.4,1.3-.9.8-1.3,2-1.3,3.4s.2,1.5.5,2.2l1.3,2.8c.8,1.6,1.1,3.3,1.1,5.2,0,3.4-1.1,6.1-3.4,8.1-2.3,2.1-5.2,3.1-8.9,3.1s-7.8-1.5-9.9-3.9-2.3-4.5-2.3-6.6ZM12.2,33.9c3.1,0,5.7-.9,7.5-2.7,1.9-1.8,2.8-4.2,2.8-7.1s-.9-5.5-2.8-7.3-4.3-2.7-7.4-2.7-5.7.9-7.6,2.8c-1.9,1.9-2.9,4.4-2.9,7.5s.9,5.2,2.8,6.9,4.4,2.6,7.5,2.6h0Z"/>
  <path class="cls-5" d="M32,23.8c.2.6.5,1.1.9,1.6.2.4.5.7.4,1.2,0,0,0,.2,0,.2.7.4,1.5.8,2.2,1.2-.5.2-.9,0-1.3-.2-.7-.4-1.4-1-1.9-1.7-.9-1.3-1.9-2.6-2.8-4-.5-.8-.8-1.6-1.2-2.4-.7-1.3-1.4-2.6-2.1-3.9-.4-.8-.7-1.7-1-2.5-.6-1.3-1.2-2.6-1.8-3.8-.8-1.8-1.7-3.6-2.1-5.5-.2-1.1-.3-2.1,0-3.2,0-.3.2-.5.5-.6,0,.3,0,.5-.2.7-.5,1.7-.2,3.2,1,4.6.1.2.4.5.4.5,0,0,.4,0,.5-.3.3-.6,1.8-1.9,2.8-1,0,0,.4,0,.5.2h1.2c1.1-.2,2-.9,2.8-1.7.4-.4.7-1,1.1-1.4.6-.8,1.4-1.3,2.4-1.3s1.1.2,1.4.6c.5.6,1,1.2,1.5,1.9,0,.2.2.5.2.7,0,.9-.2,1.8-.3,2.7-.2,1.2,0,2.3.2,3.4,0,.2.2.4.3.6.2.3.6.5.6.9,0,0,0,.1.2.2.7.4,1.3.7,2,1.2.7.4,1.4.9,2,1.4.8.7,1.4,1.6,1.5,2.7s-.5,2-1.6,2.3c-.5.1-1,.2-1.4.3-1.2.3-2.2.9-3.3,1.4,0,0-.3.1-.4.2-.5.3-1,.5-1.6.8l-3.9,2.1h.2Z"/>
  <path class="cls-5" d="M35.9,21.6c.6-.3,1.1-.6,1.6-.8,0,0,.3-.1.4-.2,1.1-.5,2.1-1.1,3.3-1.4.5-.1,1-.2,1.4-.3,1.1-.3,1.7-1.2,1.6-2.3s-.7-2-1.5-2.7c-.6-.5-1.3-1-2-1.4-.6-.4-1.3-.8-2-1.2,0,0-.2-.1-.2-.2,0-.4-.4-.6-.6-.9,0-.2-.3-.4-.3-.6-.3-1.1-.4-2.2-.2-3.4,0-.9.2-1.8.3-2.7,0-.2,0-.5-.2-.7-.5-.7-1-1.3-1.5-1.9-.4-.4-.9-.6-1.4-.6-1,0-1.8.5-2.4,1.3-.4.5-.7,1-1.1,1.4-.8.8-1.7,1.5-2.8,1.7h-1.2c.6.7,1.4.9,2.1,1.4-.3,0-.6,0-.9.2,0,0,0,.2.1.2.9,1.1,1.6,2.4,2.2,3.6s1.3,2.4,2.1,3.5c.5.6.8,1.3,1,2,.3,1.3.7,2.5,1.1,3.7.3.8.6,1.5.9,2.2h.2ZM35.6,22.1c-.2-.5-.5-1-.7-1.6-.5-1.5-.9-2.9-1.4-4.4-.2-.6-.4-1.3-.8-1.8-1.2-1.6-2.1-3.4-3.1-5.2s-1.2-1.9-1.8-2.8c-.9.5-1.7.9-2.5,1.3.2.5.5.9.7,1.4.5,1.1,1,2.2,1.5,3.3.7,1.4,1.4,2.7,2,4.1.7,1.6,1.4,3.2,2,4.8.3.8.6,1.6.9,2.4,1-.5,2-1,3.1-1.6h.1ZM35.7,28c-.8-.4-1.5-.8-2.2-1.2,0,0,0-.1,0-.2,0-.5-.2-.9-.4-1.2-.5-.7-.8-1.4-1.1-2.2-.2-.8-.5-1.6-.9-2.4-1-2.4-2-4.7-3.2-7-.6-1.1-1.1-2.2-1.6-3.3-.3-.6-.4-1.2-.7-1.8s-.7-1.1-1-1.6c-.5-.6-1-1.2-1.5-1.8-1.1-1.4-1.5-2.9-1-4.6,0-.2,0-.4.2-.7-.4.1-.5.4-.5.6-.3,1.1-.2,2.1,0,3.2.3,2,1.3,3.7,2.1,5.5.6,1.3,1.2,2.6,1.8,3.8.4.8.6,1.7,1,2.5.6,1.3,1.4,2.6,2.1,3.9.4.8.7,1.7,1.2,2.4.9,1.4,1.8,2.7,2.8,4,.5.7,1.1,1.3,1.9,1.7s.8.4,1.3.2l-.2.2ZM24.4,6.2c.2.3.3.5.5.8.1.2.2.2.4.2,1-.2,1.7-.9,2.5-1.2-.4-.3-.7-.6-1-.8-.8.9-1,.9-2.4,1.1h0ZM26.1,4.5c-.7,0-1.3.2-1.7.7,0,0-.2.3-.1.4,0,0,.3.2.4.2.6,0,1.2-.3,1.6-.7,0,0,.2-.3.1-.4,0,0-.2,0-.3,0h0Z"/>
  <path class="cls-3" d="M35.9,21.6c-.3-.7-.6-1.4-.9-2.2-.4-1.2-.8-2.5-1.1-3.7-.2-.8-.5-1.4-1-2-.8-1.1-1.5-2.3-2.1-3.5-.7-1.3-1.3-2.5-2.2-3.6,0,0,0,0-.1-.2.3,0,.5,0,.9-.2-.7-.5-1.5-.8-2.1-1.4h1.2c1.1-.2,2-.9,2.8-1.7.4-.4.7-1,1.1-1.4.6-.8,1.4-1.3,2.4-1.3s1.1.2,1.4.6c.5.6,1,1.2,1.5,1.9,0,.2.2.5.2.7,0,.9-.2,1.8-.3,2.7-.2,1.2,0,2.3.2,3.4,0,.2.2.4.3.6.2.3.6.5.6.9,0,0,0,.1.2.2.7.4,1.3.7,2,1.2.7.4,1.4.9,2,1.4.8.7,1.4,1.6,1.5,2.7s-.5,2-1.6,2.3c-.5.1-1,.2-1.4.3-1.2.3-2.2.9-3.3,1.4,0,0-.3.1-.4.2-.5.3-1,.5-1.6.8h-.2ZM35.7,4.5c-.2.2-.3.3-.4.4-.6.8-1.2,1.4-2.2,1.7-.9.3-1.8.3-2.6-.3-.2,0-.3-.3-.5-.5,0,.5.2.8.5,1.1,1,.8,3,1.1,4.2.4.4-.2.8-.6.9-1.1v-1.8h.1ZM36.6,18.7v-.2c-.3-1.2,0-2,1.1-2.7.7-.5,1.6-.7,2.4-.7h.9c-.4-.3-.8-.5-1.2-.8-.5-.3-.9-.4-1.5-.2-.5.2-1,.5-1.4,1-.6.7-1,1.5-1.1,2.5,0,.5,0,.9.6,1.2h.2Z"/>
  <path class="cls-1" d="M35.6,22.1c-1,.5-2,1-3.1,1.6-.3-.8-.5-1.6-.9-2.4-.7-1.6-1.3-3.2-2-4.8-.6-1.4-1.4-2.7-2-4.1-.5-1.1-1-2.2-1.5-3.3-.2-.5-.5-1-.7-1.4.8-.4,1.6-.8,2.5-1.3.6.9,1.2,1.8,1.8,2.8,1,1.7,1.8,3.6,3.1,5.2.4.5.6,1.2.8,1.8.5,1.5.9,2.9,1.4,4.4.2.5.5,1,.7,1.6h-.1Z"/>
  <path class="cls-3" d="M35.7,28c-.5.2-.9,0-1.3-.2-.7-.4-1.4-1-1.9-1.7-.9-1.3-1.9-2.6-2.8-4-.5-.8-.8-1.6-1.2-2.4-.7-1.3-1.4-2.6-2.1-3.9-.4-.8-.7-1.7-1-2.5-.6-1.3-1.2-2.6-1.8-3.8-.8-1.8-1.7-3.6-2.1-5.5-.2-1.1-.3-2.1,0-3.2,0-.3.2-.5.5-.6,0,.3,0,.5-.2.7-.5,1.7-.2,3.2,1,4.6.5.6,1,1.2,1.5,1.8.4.5.7,1,1,1.6s.4,1.2.7,1.8c.5,1.1,1.1,2.2,1.6,3.3,1.2,2.3,2.2,4.6,3.2,7,.3.8.6,1.6.9,2.4.2.8.6,1.5,1.1,2.2.2.4.5.7.4,1.2,0,0,0,.2,0,.2.7.4,1.5.8,2.2,1.2l.2-.2Z"/>
  <path class="cls-1" d="M24.4,6.2c1.5-.2,1.6-.3,2.4-1.1.3.3.7.5,1,.8-.9.4-1.6,1-2.5,1.2-.2,0-.3,0-.4-.2-.1-.3-.3-.5-.5-.8h0Z"/>
  <path class="cls-1" d="M26.1,4.5s.3,0,.3,0,0,.3-.1.4c-.4.5-1,.7-1.6.7s-.3,0-.4-.2c0,0,0-.3.1-.4.4-.5,1-.7,1.7-.7h0Z"/>
  <g>
    <path class="cls-5" d="M35.7,4.5v1.8c0,.5-.5.9-.9,1.1-1.1.6-3.2.4-4.2-.4-.3-.3-.5-.6-.5-1.1.2.2.3.3.5.5.8.6,1.7.7,2.6.3.9-.3,1.6-1,2.2-1.7,0,0,.2-.2.4-.4h0Z"/>
    <path class="cls-5" d="M36.6,18.7c-.5-.3-.6-.8-.6-1.2,0-1,.4-1.8,1.1-2.5.4-.4.8-.8,1.4-1,.5-.2,1-.1,1.5.2.4.3.8.5,1.2.8h-.9c-.9,0-1.7.3-2.4.7-1,.7-1.4,1.5-1.1,2.7v.2h-.2Z"/>
  </g>
</svg>